<svg width="2414" height="349" viewBox="0 0 2414 349" fill="none" xmlns="http://www.w3.org/2000/svg">
<path d="M0.832886 349.001V-0.00885993H78.3212V77.5836H117.169V155.176H194.658V77.5836H233.506V-0.00885993H310.994V349.001H233.506V232.664H194.658V310.257H117.169V232.664H78.3212V349.001H0.832886ZM351.052 349.001V-0.00885993H583.725V38.8394H428.54V155.176H544.877V193.92H428.54V310.257H583.725V349.001H351.052ZM623.783 349.001V-0.00885993H701.271V77.5836H740.12V155.176H817.608V77.5836H856.456V-0.00885993H933.944V349.001H856.456V232.664H817.608V310.257H740.12V232.664H701.271V349.001H623.783ZM974.002 349.001V-0.00885993H1206.68V38.8394H1051.49V155.176H1167.83V193.92H1051.49V310.257H1206.68V349.001H974.002ZM1246.73 349.001V-0.00885993H1324.22V310.257H1479.41V349.001H1246.73ZM1713.29 310.257V38.8394H1596.95V310.257H1713.29ZM1558.21 349.001V310.257H1519.46V38.8394H1558.21V-0.00885993H1752.14V38.8394H1790.88V310.257H1752.14V349.001H1558.21ZM2024.76 155.176V38.8394H1908.43V155.176H2024.76ZM1830.94 349.001V-0.00885993H2063.61V38.8394H2102.36V155.176H2063.61V193.92H2102.36V349.001H2024.76V193.92H1908.43V349.001H1830.94ZM2297.49 310.257V271.513H2336.24V77.5836H2297.49V38.8394H2219.9V310.257H2297.49ZM2142.41 349.001V-0.00885993H2336.24V38.8394H2375.09V77.5836H2413.83V271.513H2375.09V310.257H2336.24V349.001H2142.41Z" fill="black"/>
</svg>
