<svg xmlns="http://www.w3.org/2000/svg" width="1200" height="630" viewBox="0 0 1200 630" role="img" aria-label="Weather Meme">
  <defs>
    <linearGradient id="bg" x1="0" y1="0" x2="1200" y2="630" gradientUnits="userSpaceOnUse">
      <stop stop-color="#f7ffff"/>
      <stop offset="0.44" stop-color="#c9f8ff"/>
      <stop offset="1" stop-color="#9adfff"/>
    </linearGradient>
    <linearGradient id="sun" x1="742" y1="68" x2="980" y2="306" gradientUnits="userSpaceOnUse">
      <stop stop-color="#fffbd1"/>
      <stop offset="1" stop-color="#ffb13b"/>
    </linearGradient>
    <filter id="shadow" x="-20%" y="-20%" width="140%" height="150%">
      <feDropShadow dx="0" dy="24" stdDeviation="28" flood-color="#268fd6" flood-opacity="0.22"/>
    </filter>
  </defs>
  <rect width="1200" height="630" fill="url(#bg)"/>
  <circle cx="862" cy="190" r="118" fill="url(#sun)" opacity="0.95"/>
  <circle cx="1060" cy="104" r="42" fill="#fff" opacity="0.45"/>
  <circle cx="1126" cy="384" r="74" fill="#fff" opacity="0.32"/>
  <circle cx="144" cy="506" r="94" fill="#fff" opacity="0.34"/>

  <g filter="url(#shadow)">
    <rect x="76" y="76" width="1048" height="478" rx="52" fill="#ffffff" fill-opacity="0.76" stroke="#ffffff" stroke-width="3"/>
  </g>

  <text x="126" y="178" fill="#1570a6" font-family="Inter, ui-sans-serif, system-ui, -apple-system, BlinkMacSystemFont, 'Segoe UI', sans-serif" font-size="34" font-weight="800" letter-spacing="7">WEATHERMEME.APP</text>
  <text x="122" y="318" fill="#063f5c" font-family="Inter, ui-sans-serif, system-ui, -apple-system, BlinkMacSystemFont, 'Segoe UI', sans-serif" font-size="92" font-weight="900">Weather Meme</text>
  <text x="128" y="408" fill="#24576a" font-family="Inter, ui-sans-serif, system-ui, -apple-system, BlinkMacSystemFont, 'Segoe UI', sans-serif" font-size="38" font-weight="700">Meme reaction out.</text>

  <g transform="translate(925 324) scale(.72)">
    <path fill="#fff" stroke="#0a4664" stroke-width="12" stroke-linejoin="round" d="M-146 172h256c53 0 96-38 96-87 0-47-38-84-87-87A128 128 0 0 0-125-33a101 101 0 0 0-21 205Z"/>
    <circle cx="-50" cy="76" r="15" fill="#0a4664"/>
    <circle cx="70" cy="76" r="15" fill="#0a4664"/>
    <path d="M-32 126c31 25 80 25 111 0" fill="none" stroke="#0a4664" stroke-width="14" stroke-linecap="round"/>
    <rect x="-118" y="-86" width="132" height="58" rx="18" fill="#ffffff" stroke="#0a4664" stroke-width="8"/>
    <text x="-94" y="-46" fill="#0a4664" font-family="Inter, ui-sans-serif, system-ui" font-size="32" font-weight="900">72°</text>
  </g>
</svg>
